<svg version="1.1" xmlns="http://www.w3.org/2000/svg" xmlns:xlink="http://www.w3.org/1999/xlink" width="182.16283" height="180.29347" viewBox="0,0,182.16283,180.29347"><g transform="translate(-151.4186,-93.25039)"><g data-paper-data="{&quot;isPaintingLayer&quot;:true}" fill-rule="nonzero" stroke="none" stroke-width="1" stroke-linecap="butt" stroke-linejoin="miter" stroke-miterlimit="10" stroke-dasharray="" stroke-dashoffset="0" style="mix-blend-mode: normal"><path d="M311.43608,100.04465c12.21455,0 22.14535,9.93081 22.14535,22.14535v99.6541c0,12.21455 -9.93081,22.14535 -22.14535,22.14535h-41.98713c0,0 -17.59876,22.11078 -23.04633,28.79502c-0.99752,1.22397 -2.50251,0.85095 -3.50318,-0.28515c-3.62308,-4.1134 -25.11145,-28.50988 -25.11145,-28.50988h-39.22404c-12.21455,0 -22.14535,-9.93081 -22.14535,-22.14535v-99.6541c0,-12.21455 9.93081,-22.14535 22.14535,-22.14535z" fill="#0092d6"/><path d="M306.43608,93.2504c12.21455,0 22.14535,9.93081 22.14535,22.14535v99.6541c0,12.21455 -9.93081,22.14535 -22.14535,22.14535h-41.98713c0,0 -17.59876,22.11078 -23.04633,28.79502c-0.99752,1.22397 -2.50251,0.85095 -3.50318,-0.28515c-3.62308,-4.1134 -25.11145,-28.50988 -25.11145,-28.50988h-39.22404c-12.21455,0 -22.14535,-9.93081 -22.14535,-22.14535v-99.6541c0,-12.21455 9.93081,-22.14535 22.14535,-22.14535z" fill="#00b0ff"/><path d="M212.80398,155.9111c-4.77226,0 -8.62782,-3.85556 -8.62782,-8.62782c0,-19.06209 15.44919,-34.51127 34.51127,-34.51127h8.62782c19.06209,0 34.51127,15.44919 34.51127,34.51127v0.97064c0,11.75541 -5.98555,22.67498 -15.85361,29.038l-11.37794,7.30669c-1.83341,1.18633 -2.96582,3.23543 -2.96582,5.44631v0.37747c0,4.77226 -3.85556,8.62782 -8.62781,8.62782c-4.77226,0 -8.62782,-3.85556 -8.62782,-8.62782v-0.40443c0,-8.06161 4.09821,-15.58399 10.89262,-19.95183l11.37794,-7.30669c4.93403,-3.15454 7.92682,-8.62782 7.92682,-14.50552v-0.97064c0,-9.51756 -7.73808,-17.25563 -17.25564,-17.25563h-8.62782c-9.51756,0 -17.25563,7.73807 -17.25563,17.25563c0,4.77226 -3.85556,8.62781 -8.62781,8.62781zM232.21658,222.77671c0,-5.95626 4.82851,-10.78477 10.78477,-10.78477c5.95626,0 10.78477,4.82851 10.78477,10.78477c0,5.95626 -4.82851,10.78477 -10.78477,10.78477c-5.95626,0 -10.78477,-4.82851 -10.78477,-10.78477z" fill="#f1f1f1"/><path d="M208.70111,155.39674c-4.77226,0 -8.62782,-3.85556 -8.62782,-8.62782c0,-19.06209 15.44919,-34.51127 34.51127,-34.51127h8.62782c19.06209,0 34.51127,15.44919 34.51127,34.51127v0.97064c0,11.75541 -5.98555,22.67498 -15.85361,29.038l-11.37794,7.30669c-1.83341,1.18633 -2.96582,3.23543 -2.96582,5.44631v0.37747c0,4.77226 -3.85556,8.62782 -8.62781,8.62782c-4.77226,0 -8.62782,-3.85556 -8.62782,-8.62782v-0.40443c0,-8.06161 4.09821,-15.58399 10.89262,-19.95183l11.37794,-7.30669c4.93403,-3.15454 7.92682,-8.62782 7.92682,-14.50552v-0.97064c0,-9.51756 -7.73808,-17.25563 -17.25564,-17.25563h-8.62782c-9.51756,0 -17.25563,7.73807 -17.25563,17.25563c0,4.77226 -3.85556,8.62781 -8.62781,8.62781zM228.11371,222.26235c0,-5.95626 4.82851,-10.78477 10.78477,-10.78477c5.95626,0 10.78477,4.82851 10.78477,10.78477c0,5.95626 -4.82851,10.78477 -10.78477,10.78477c-5.95626,0 -10.78477,-4.82851 -10.78477,-10.78477z" fill="#ffffff"/></g></g></svg>